<svg width="37" height="37" viewBox="0 0 37 37" fill="none" xmlns="http://www.w3.org/2000/svg">
<rect width="37" height="37" rx="12" fill="#00D09E"/>
<path d="M28.3965 26.9654C28.19 27.0944 27.9511 27.1616 27.7079 27.1594H9.2981C9.05393 27.1638 8.81363 27.0979 8.60577 26.9694C8.3979 26.8408 8.23124 26.6552 8.12556 26.4345C8.01989 26.2138 7.97966 25.9673 8.00966 25.7243C8.03966 25.4813 8.13862 25.2521 8.2948 25.0639C9.46325 23.4852 10.2552 21.659 10.6097 19.7256C11.2263 16.5771 10.385 13.2505 12.5902 10.542C13.3088 9.66709 14.211 8.96181 15.2326 8.47645C16.2541 7.99109 17.3699 7.73762 18.5004 7.73406C18.5021 7.73406 18.5039 7.73407 18.5056 7.73407C19.6345 7.73731 20.7487 7.99023 21.7689 8.47492C22.7906 8.96035 23.6927 9.66626 24.4105 10.542C26.6157 13.2505 25.7796 16.5823 26.3962 19.7256C26.7508 21.659 27.5427 23.4852 28.7112 25.0639C28.8651 25.2528 28.9622 25.4817 28.991 25.7239C29.0198 25.9661 28.9792 26.2115 28.8739 26.4313C28.7687 26.6512 28.603 26.8365 28.3965 26.9654Z" fill="#00D09E"/>
<path d="M27.7079 27.1594L27.7172 26.1594H27.7079V27.1594ZM28.3965 26.9654L27.8669 26.1172L27.8669 26.1172L28.3965 26.9654ZM28.8739 26.4313L27.972 25.9995V25.9995L28.8739 26.4313ZM28.991 25.7239L27.998 25.842V25.8421L28.991 25.7239ZM28.7112 25.0639L27.9074 25.6588L27.9213 25.6775L27.936 25.6956L28.7112 25.0639ZM26.3962 19.7256L27.3799 19.5452L27.3775 19.5331L26.3962 19.7256ZM24.4105 10.542L25.186 9.91064L25.1839 9.90811L24.4105 10.542ZM21.7689 8.47492L21.3398 9.37815L21.7689 8.47492ZM18.5056 7.73407L18.5027 8.73407H18.5027L18.5056 7.73407ZM18.5004 7.73406L18.5026 6.73405L18.4972 6.73406L18.5004 7.73406ZM15.2326 8.47645L15.6617 9.37969H15.6617L15.2326 8.47645ZM12.5902 10.542L11.8174 9.90736L11.8148 9.91064L12.5902 10.542ZM10.6097 19.7256L9.6283 19.5334L9.62613 19.5452L10.6097 19.7256ZM8.2948 25.0639L9.06437 25.7024L9.08208 25.6811L9.09858 25.6588L8.2948 25.0639ZM8.00966 25.7243L7.0172 25.6017L8.00966 25.7243ZM8.12556 26.4345L7.22362 26.8663L8.12556 26.4345ZM8.60577 26.9694L8.07992 27.8199H8.07992L8.60577 26.9694ZM9.2981 27.1594V26.1594H9.28903L9.27996 26.1595L9.2981 27.1594ZM19.5056 6C19.5056 5.44772 19.0579 5 18.5056 5C17.9533 5 17.5056 5.44772 17.5056 6H19.5056ZM20.9447 30.3644L20.0201 29.9835V29.9835L20.9447 30.3644ZM20.3716 31.2251L19.6636 30.5189L19.6636 30.5189L20.3716 31.2251ZM19.5131 31.7996L19.8957 32.7235L19.8957 32.7235L19.5131 31.7996ZM18.5004 32L18.5024 31H18.5004V32ZM17.4893 31.7981L17.8733 30.8748L17.8733 30.8748L17.4893 31.7981ZM16.6325 31.2233L17.3412 30.5177H17.3412L16.6325 31.2233ZM27.6986 28.1593C28.1324 28.1634 28.5582 28.0434 28.9261 27.8137L27.8669 26.1172C27.8218 26.1454 27.7699 26.1599 27.7172 26.1594L27.6986 28.1593ZM28.9261 27.8137C29.294 27.584 29.5887 27.2542 29.7759 26.8632L27.972 25.9995C27.9486 26.0483 27.9121 26.089 27.8669 26.1172L28.9261 27.8137ZM29.7759 26.8632C29.9631 26.4722 30.0352 26.036 29.984 25.6057L27.998 25.8421C28.0044 25.8961 27.9953 25.9507 27.972 25.9995L29.7759 26.8632ZM29.984 25.6057C29.9328 25.1753 29.7602 24.7682 29.4864 24.4321L27.936 25.6956C27.9699 25.7373 27.9916 25.7881 27.998 25.842L29.984 25.6057ZM29.515 24.469C28.4374 23.013 27.7069 21.3286 27.3798 19.5452L25.4126 19.9059C25.7947 21.9893 26.6481 23.9573 27.9074 25.6588L29.515 24.469ZM27.3775 19.5331C27.2372 18.8176 27.1766 18.0762 27.1345 17.2918C27.0936 16.5302 27.069 15.6862 26.9949 14.8793C26.8435 13.2306 26.4706 11.4884 25.186 9.91064L23.6351 11.1734C24.5556 12.3041 24.8673 13.5821 25.0033 15.0622C25.0729 15.8197 25.0927 16.5673 25.1374 17.3991C25.1808 18.2081 25.247 19.0619 25.4149 19.9181L27.3775 19.5331ZM25.1839 9.90811C24.3727 8.91842 23.3531 8.12048 22.198 7.57168L21.3398 9.37815C22.2281 9.80022 23.0127 10.4141 23.6371 11.1759L25.1839 9.90811ZM22.198 7.57168C21.0447 7.02371 19.7849 6.73773 18.5085 6.73407L18.5027 8.73407C19.4841 8.73688 20.4528 8.95674 21.3398 9.37815L22.198 7.57168ZM18.5085 6.73407C18.5065 6.73407 18.5045 6.73406 18.5026 6.73406L18.4982 8.73405C18.4997 8.73406 18.5012 8.73406 18.5027 8.73407L18.5085 6.73407ZM18.4972 6.73406C17.2193 6.73808 15.9581 7.02463 14.8034 7.57321L15.6617 9.37969C16.5502 8.95756 17.5205 8.73715 18.5035 8.73405L18.4972 6.73406ZM14.8034 7.57321C13.6488 8.12179 12.6293 8.91883 11.8175 9.90737L13.363 11.1767C13.9883 10.4154 14.7732 9.80183 15.6617 9.37969L14.8034 7.57321ZM11.8148 9.91064C10.5299 11.4887 10.1585 13.2298 10.0084 14.8781C9.93495 15.6846 9.91104 16.5287 9.87062 17.2902C9.82899 18.0747 9.76874 18.8167 9.62837 19.5334L11.5911 19.9178C11.759 19.0602 11.8248 18.2057 11.8678 17.3962C11.912 16.5639 11.9312 15.8167 12.0001 15.0595C12.1349 13.5802 12.4454 12.3038 13.3657 11.1734L11.8148 9.91064ZM9.62613 19.5452C9.29908 21.3286 8.56861 23.013 7.49101 24.469L9.09858 25.6588C10.3579 23.9573 11.2113 21.9893 11.5933 19.9059L9.62613 19.5452ZM7.52522 24.4253C7.2468 24.7609 7.07061 25.1692 7.0172 25.6017L9.00212 25.8468C9.00872 25.7934 9.03045 25.7433 9.06437 25.7024L7.52522 24.4253ZM7.0172 25.6017C6.96379 26.0343 7.03538 26.4732 7.22362 26.8663L9.02751 26.0026C9.00439 25.9543 8.99553 25.9002 9.00212 25.8468L7.0172 25.6017ZM7.22362 26.8663C7.41185 27.2595 7.70891 27.5906 8.07992 27.8199L9.13162 26.1188C9.0869 26.0911 9.05064 26.0509 9.02751 26.0026L7.22362 26.8663ZM8.07992 27.8199C8.45093 28.0493 8.88006 28.1671 9.31624 28.1592L9.27996 26.1595C9.2278 26.1605 9.17633 26.1464 9.13162 26.1188L8.07992 27.8199ZM9.2981 28.1594H27.7079V26.1594H9.2981V28.1594ZM19.5056 7.73407V6H17.5056V7.73407H19.5056ZM20.1445 29.3512C20.145 29.5681 20.1026 29.783 20.0201 29.9835L21.8693 30.7454C22.0519 30.302 22.1455 29.8268 22.1445 29.3472L20.1445 29.3512ZM20.0201 29.9835C19.9375 30.1839 19.8163 30.3658 19.6636 30.5189L21.0796 31.9313C21.4182 31.5918 21.6866 31.1888 21.8693 30.7454L20.0201 29.9835ZM19.6636 30.5189C19.5109 30.672 19.3297 30.7932 19.1305 30.8757L19.8957 32.7235C20.3387 32.5401 20.741 32.2708 21.0796 31.9313L19.6636 30.5189ZM19.1305 30.8757C18.9312 30.9582 18.7178 31.0004 18.5024 31L18.4984 33C18.9779 33.0009 19.4527 32.907 19.8957 32.7235L19.1305 30.8757ZM18.5004 31C18.2853 31 18.0721 30.9575 17.8733 30.8748L17.1053 32.7215C17.5475 32.9053 18.0216 33 18.5004 33V31ZM17.8733 30.8748C17.6744 30.7921 17.4936 30.6708 17.3412 30.5177L15.9238 31.9288C16.2617 32.2682 16.6632 32.5376 17.1053 32.7215L17.8733 30.8748ZM17.3412 30.5177C17.1889 30.3647 17.068 30.1829 16.9856 29.9827L15.1361 30.7437C15.3183 31.1866 15.5859 31.5893 15.9238 31.9288L17.3412 30.5177ZM16.9856 29.9827C16.9033 29.7825 16.861 29.5679 16.8615 29.3512L14.8615 29.3472C14.8605 29.8262 14.9538 30.3007 15.1361 30.7437L16.9856 29.9827Z" fill="#093030"/>
</svg>
