<svg width="57" height="53" viewBox="0 0 57 53" fill="none" xmlns="http://www.w3.org/2000/svg">
<path d="M37.9193 25.0742L22.5471 34.9398C22.2549 35.1273 21.8824 35.1353 21.5824 34.9606L2.30879 23.7349C1.71161 23.3871 1.69323 22.531 2.27493 22.1578L33.708 1.99534C34.0001 1.80802 34.3724 1.79996 34.6722 1.97448L53.9456 13.1914C54.5429 13.539 54.5615 14.3953 53.9798 14.7685L44.9049 20.5914M37.9287 32.9097L22.5468 42.7756C22.2548 42.9629 21.8825 42.971 21.5827 42.7965L2.30854 31.5791C1.71137 31.2315 1.69256 30.3756 2.27389 30.0022L7.40897 26.7034M48.8459 18.0675L53.9451 21.0358C54.5425 21.3836 54.5609 22.2401 53.9789 22.6132L44.8208 28.4834M49.2195 25.6581L54.0064 28.6247C54.5843 28.9829 54.5909 29.8214 54.0187 30.1886L22.5471 50.3848C22.2549 50.5722 21.8824 50.5803 21.5824 50.4056L2.30878 39.1799C1.71161 38.832 1.69322 37.9759 2.27492 37.6028L7.21285 34.4353M24.2503 8.66134L44.3615 20.371C44.6459 20.5366 44.8208 20.8409 44.8208 21.17V35.5784C44.8208 35.8931 44.6607 36.1862 44.3959 36.3563L39.3528 39.5951C38.7375 39.9903 37.9287 39.5485 37.9287 38.8172V25.6055C37.9287 25.2765 37.7539 24.9723 37.4696 24.8067L18.1744 13.5635C17.5776 13.2157 17.5591 12.36 18.1403 11.9868L23.2855 8.68238C23.5777 8.49477 23.9503 8.48664 24.2503 8.66134Z" stroke="currentColor" stroke-width="3.69811" stroke-linecap="round" stroke-linejoin="round"/>
</svg>
